<svg width="21" height="22" viewBox="0 0 21 22" fill="none" xmlns="http://www.w3.org/2000/svg">
<path d="M20.4866 15.2091L18.08 6.52842C17.5964 4.7822 16.5424 3.24803 15.0859 2.17027C13.6293 1.09251 11.854 0.533153 10.0427 0.581297C8.23141 0.629442 6.48832 1.28232 5.09108 2.43593C3.69384 3.58955 2.72281 5.17755 2.33268 6.94698L0.471911 15.3183C0.402152 15.6324 0.403831 15.9582 0.476825 16.2716C0.549818 16.5849 0.692263 16.8779 0.893643 17.1289C1.09502 17.3799 1.3502 17.5824 1.64032 17.7215C1.93045 17.8607 2.24813 17.9329 2.5699 17.9328H6.13071C6.40422 18.8787 6.97767 19.7101 7.76468 20.3018C8.55169 20.8934 9.50965 21.2134 10.4943 21.2134C11.4789 21.2134 12.4369 20.8934 13.2239 20.3018C14.0109 19.7101 14.5843 18.8787 14.8578 17.9328H18.4169C18.7482 17.9328 19.0749 17.8563 19.3717 17.7091C19.6685 17.5619 19.9272 17.3482 20.1276 17.0845C20.3281 16.8208 20.4649 16.5143 20.5273 16.189C20.5897 15.8636 20.5761 15.5283 20.4874 15.2091H20.4866ZM3.10535 15.3544L4.85009 7.50135C5.11731 6.2947 5.78051 5.21213 6.7341 4.42595C7.68769 3.63978 8.87687 3.1952 10.1123 3.16298C11.3478 3.13076 12.5585 3.51275 13.5518 4.24815C14.5451 4.98355 15.2638 6.03008 15.5936 7.22116L17.8523 15.3544H3.10535Z" fill="white"/>
</svg>
