<svg width="20" height="20" viewBox="0 0 20 20" fill="none" xmlns="http://www.w3.org/2000/svg">
<g clip-path="url(#clip0_73_47)">
<path d="M6.25 10.8333C5.50832 10.8333 4.7833 10.6134 4.16661 10.2013C3.54993 9.78929 3.06928 9.20362 2.78545 8.5184C2.50162 7.83318 2.42736 7.07918 2.57206 6.35175C2.71675 5.62432 3.0739 4.95613 3.59835 4.43168C4.1228 3.90724 4.79098 3.55008 5.51841 3.40539C6.24584 3.2607 6.99984 3.33496 7.68506 3.61879C8.37029 3.90262 8.95596 4.38326 9.36801 4.99995C9.78007 5.61663 10 6.34166 10 7.08334C9.9989 8.07756 9.60345 9.03075 8.90043 9.73377C8.19741 10.4368 7.24422 10.8322 6.25 10.8333ZM6.25 5.83334C6.00277 5.83334 5.7611 5.90665 5.55554 6.044C5.34998 6.18135 5.18976 6.37657 5.09515 6.60498C5.00054 6.83339 4.97579 7.08472 5.02402 7.3272C5.07225 7.56967 5.1913 7.7924 5.36612 7.96722C5.54093 8.14203 5.76366 8.26109 6.00614 8.30932C6.24861 8.35755 6.49995 8.33279 6.72835 8.23818C6.95676 8.14358 7.15199 7.98336 7.28934 7.7778C7.42669 7.57224 7.5 7.33056 7.5 7.08334C7.5 6.75181 7.3683 6.43387 7.13388 6.19945C6.89946 5.96503 6.58152 5.83334 6.25 5.83334ZM12.5 17.0833C12.4987 15.8682 12.0154 14.7031 11.1561 13.8439C10.2969 12.9846 9.13184 12.5013 7.91667 12.5H4.58333C3.36816 12.5013 2.20314 12.9846 1.34389 13.8439C0.484634 14.7031 0.00132347 15.8682 0 17.0833L0 20H2.5V17.0833C2.5 16.5308 2.71949 16.0009 3.11019 15.6102C3.5009 15.2195 4.0308 15 4.58333 15H7.91667C8.19025 15 8.46116 15.0539 8.71392 15.1586C8.96669 15.2633 9.19635 15.4167 9.38981 15.6102C9.58326 15.8037 9.73672 16.0333 9.84142 16.2861C9.94611 16.5388 10 16.8097 10 17.0833V20H12.5V17.0833ZM14.5833 7.5C13.8417 7.5 13.1166 7.28007 12.4999 6.86801C11.8833 6.45596 11.4026 5.87029 11.1188 5.18506C10.835 4.49984 10.7607 3.74584 10.9054 3.01841C11.0501 2.29098 11.4072 1.6228 11.9317 1.09835C12.4561 0.573904 13.1243 0.216751 13.8517 0.0720569C14.5792 -0.0726377 15.3332 0.00162482 16.0184 0.285453C16.7036 0.569282 17.2893 1.04993 17.7013 1.66661C18.1134 2.2833 18.3333 3.00832 18.3333 3.75C18.3322 4.74423 17.9368 5.69741 17.2338 6.40043C16.5307 7.10346 15.5776 7.4989 14.5833 7.5ZM14.5833 2.5C14.3361 2.5 14.0944 2.57331 13.8889 2.71066C13.6833 2.84802 13.5231 3.04324 13.4285 3.27165C13.3339 3.50006 13.3091 3.75139 13.3574 3.99386C13.4056 4.23634 13.5246 4.45907 13.6995 4.63389C13.8743 4.8087 14.097 4.92775 14.3395 4.97598C14.5819 5.02422 14.8333 4.99946 15.0617 4.90485C15.2901 4.81024 15.4853 4.65003 15.6227 4.44446C15.76 4.2389 15.8333 3.99723 15.8333 3.75C15.8333 3.41848 15.7016 3.10054 15.4672 2.86612C15.2328 2.6317 14.9149 2.5 14.5833 2.5ZM20 13.75C19.9987 12.5348 19.5154 11.3698 18.6561 10.5106C17.7969 9.6513 16.6318 9.16799 15.4167 9.16667H12.5V11.6667H15.4167C15.9692 11.6667 16.4991 11.8862 16.8898 12.2769C17.2805 12.6676 17.5 13.1975 17.5 13.75V16.6667H20V13.75Z" fill="#7F8794"/>
</g>
<defs>
<clipPath id="clip0_73_47">
<rect width="20" height="20" fill="white"/>
</clipPath>
</defs>
</svg>
