<svg width="20" height="20" viewBox="0 0 20 20" fill="none" xmlns="http://www.w3.org/2000/svg">
<path d="M17.5 0.833328H2.5C1.83696 0.833328 1.20107 1.09672 0.732233 1.56556C0.263392 2.0344 0 2.67029 0 3.33333L0 19.1667H20V3.33333C20 2.67029 19.7366 2.0344 19.2678 1.56556C18.7989 1.09672 18.163 0.833328 17.5 0.833328ZM17.3117 3.33333L11.3658 9.27916C10.9979 9.63055 10.5087 9.82662 10 9.82662C9.49125 9.82662 9.00207 9.63055 8.63417 9.27916L2.68833 3.33333H17.3117ZM2.5 16.6667V6.68083L6.86583 11.0467C7.2773 11.4583 7.76584 11.7848 8.30353 12.0076C8.84123 12.2304 9.41756 12.3451 9.99958 12.3451C10.5816 12.3451 11.1579 12.2304 11.6956 12.0076C12.2333 11.7848 12.7219 11.4583 13.1333 11.0467L17.5 6.68083V16.6667H2.5Z" fill="black"/>
</svg>
