<svg width="20" height="20" viewBox="0 0 20 20" fill="none" xmlns="http://www.w3.org/2000/svg">
<path d="M11.4733 0.955817C11.2799 0.762303 11.0502 0.608797 10.7974 0.504065C10.5446 0.399334 10.2736 0.345428 10 0.345428C9.72637 0.345428 9.45541 0.399334 9.20262 0.504065C8.94982 0.608797 8.72013 0.762303 8.52667 0.955817L0 9.48332V17.5C0 18.163 0.263392 18.7989 0.732233 19.2678C1.20107 19.7366 1.83696 20 2.5 20H17.5C18.163 20 18.7989 19.7366 19.2678 19.2678C19.7366 18.7989 20 18.163 20 17.5V9.48332L11.4733 0.955817ZM17.5 17.5H13.3333V14.8483C13.3333 14.0045 12.9981 13.1952 12.4014 12.5985C11.8048 12.0019 10.9955 11.6667 10.1517 11.6667H9.84833C9.0045 11.6667 8.19523 12.0019 7.59856 12.5985C7.00188 13.1952 6.66667 14.0045 6.66667 14.8483V17.5H2.5V10.5183L10 3.01832L17.5 10.5183V17.5Z" fill="#7F8794"/>
</svg>
