<svg width="20" height="20" viewBox="0 0 20 20" fill="none" xmlns="http://www.w3.org/2000/svg">
<path d="M20 15.8334V4.58344C20 3.80989 19.6927 3.06802 19.1457 2.52104C18.5987 1.97406 17.8569 1.66677 17.0833 1.66677H15.5483C15.253 1.042 14.7449 0.542761 14.1151 0.258449C13.4852 -0.025863 12.7747 -0.076678 12.1108 0.115104L10.865 0.475104C10.5561 0.564141 10.2639 0.703206 10 0.886771C9.73761 0.703598 9.44674 0.565064 9.13917 0.476771L7.885 0.113437C7.22147 -0.0769408 6.51187 -0.0252406 5.88294 0.259304C5.25401 0.543848 4.74672 1.0427 4.45167 1.66677H2.91667C2.14312 1.66677 1.40125 1.97406 0.854272 2.52104C0.307291 3.06802 0 3.80989 0 4.58344L0 15.8334H8.75V17.5001H5.83333V20.0001H14.1667V17.5001H11.25V15.8334H20ZM11.25 3.2801C11.2498 3.18877 11.2796 3.0999 11.3349 3.02718C11.3902 2.95445 11.4678 2.9019 11.5558 2.8776L12.8017 2.5176C12.8635 2.49965 12.9286 2.49625 12.9919 2.50767C13.0552 2.51909 13.115 2.54503 13.1667 2.58344C13.2189 2.62183 13.2612 2.67208 13.2902 2.73003C13.3191 2.78798 13.3339 2.85198 13.3333 2.91677V6.62261L11.25 7.22011V3.2801ZM6.66667 2.91677C6.66607 2.85198 6.68087 2.78798 6.70985 2.73003C6.73882 2.67208 6.78115 2.62183 6.83333 2.58344C6.88364 2.54372 6.94276 2.5167 7.00571 2.50466C7.06867 2.49262 7.13359 2.49592 7.195 2.51427L8.44917 2.8776C8.53616 2.90259 8.61266 2.95521 8.66708 3.02753C8.72151 3.09985 8.75091 3.18793 8.75083 3.27844V7.22011L6.66667 6.62261V2.91677ZM2.5 4.58344C2.5 4.47293 2.5439 4.36695 2.62204 4.28881C2.70018 4.21067 2.80616 4.16677 2.91667 4.16677H4.16667V8.50594L10 10.1793L15.8333 8.50594V4.16677H17.0833C17.1938 4.16677 17.2998 4.21067 17.378 4.28881C17.4561 4.36695 17.5 4.47293 17.5 4.58344V13.3334H2.5V4.58344Z" fill="#722AE9"/>
</svg>
